<svg xmlns="http://www.w3.org/2000/svg" xmlns:xlink="http://www.w3.org/1999/xlink" viewBox="0 0 45.16 45.16"><defs><style>.cls-1{fill:#fff;}.cls-2{fill:url(#未命名的渐变_11);}.cls-3{fill:url(#未命名的渐变_11-2);}</style><linearGradient id="未命名的渐变_11" x1="12.98" y1="22.58" x2="32.17" y2="22.58" gradientUnits="userSpaceOnUse"><stop offset="0" stop-color="#6450a4"/><stop offset="1" stop-color="#c24362"/></linearGradient><linearGradient id="未命名的渐变_11-2" x1="21.45" y1="22.58" x2="23.71" y2="22.58" xlink:href="#未命名的渐变_11"/></defs><g id="图层_2" data-name="图层 2"><g id="图层_1-2" data-name="图层 1"><path class="cls-1" d="M22.58,45.16A22.58,22.58,0,1,1,45.16,22.58,22.61,22.61,0,0,1,22.58,45.16Z"/><path class="cls-2" d="M31.05,23.71H14.11a1.13,1.13,0,1,1,0-2.26H31.05a1.13,1.13,0,0,1,0,2.26Z"/><path class="cls-3" d="M22.58,32.17a1.12,1.12,0,0,1-1.13-1.12V14.11a1.13,1.13,0,0,1,2.26,0V31.05A1.13,1.13,0,0,1,22.58,32.17Z"/></g></g></svg>