<svg xmlns="http://www.w3.org/2000/svg" viewBox="0 0 34.83 36.86"><defs><style>.cls-1{fill:#fff;}</style></defs><g id="图层_2" data-name="图层 2"><g id="图层_1-2" data-name="图层 1"><path class="cls-1" d="M31.57,26.53l-2.39-1.86a1.67,1.67,0,0,1-.65-1.32V14.77A11.09,11.09,0,0,0,21.74,4.53,11.47,11.47,0,0,0,20.31,4V2.89a2.89,2.89,0,1,0-5.78,0V4a10.62,10.62,0,0,0-1.44.49A11.1,11.1,0,0,0,6.3,14.77v8.57a1.67,1.67,0,0,1-.65,1.33L3.26,26.53A2.78,2.78,0,0,0,2.3,28a2.84,2.84,0,0,0,.06,1.58,2.77,2.77,0,0,0,.93,1.28,2.64,2.64,0,0,0,1.63.54h25a2.67,2.67,0,0,0,1.64-.54,2.75,2.75,0,0,0,.92-1.28,2.69,2.69,0,0,0-.9-3Zm-3.69-.18,2.39,1.86a.59.59,0,0,1,.2.65.58.58,0,0,1-.56.39h-25a.56.56,0,0,1-.55-.39.57.57,0,0,1,.19-.65L7,26.35a3.77,3.77,0,0,0,1.47-3V14.77a9,9,0,0,1,18,0v8.58A3.79,3.79,0,0,0,27.88,26.35ZM17.42,2.12a.77.77,0,0,1,.76.77v.65H16.65V2.89A.77.77,0,0,1,17.42,2.12Z"/><path class="cls-1" d="M13.61,33.06a3.81,3.81,0,0,0,7.61,0v-.15H13.61Z"/><path class="cls-1" d="M7.74,4.63a1.06,1.06,0,0,0,.39-.72,1,1,0,0,0-.23-.77,1.09,1.09,0,0,0-.83-.4A1,1,0,0,0,6.41,3,17.41,17.41,0,0,0,0,14.66a1.1,1.1,0,0,0,.22.78,1.06,1.06,0,0,0,.71.39h.12a1.05,1.05,0,0,0,1-.94A15.28,15.28,0,0,1,7.74,4.63Z"/><path class="cls-1" d="M34.82,14.66a17.22,17.22,0,0,0-2.08-6.55A17.58,17.58,0,0,0,28.43,3a1.06,1.06,0,0,0-1.5.16,1.06,1.06,0,0,0,.16,1.49,15.31,15.31,0,0,1,5.63,10.26,1.05,1.05,0,0,0,1.05.94h.12a1,1,0,0,0,.71-.4A1,1,0,0,0,34.82,14.66Z"/></g></g></svg>