<svg xmlns="http://www.w3.org/2000/svg" viewBox="0 0 42.6 42.29"><defs><style>.cls-1{fill:#fff;}</style></defs><g id="图层_2" data-name="图层 2"><g id="图层_1-2" data-name="图层 1"><path class="cls-1" d="M.45,23.56A2.59,2.59,0,0,0,0,25.07v4.39c0,3.32,6,6,13.59,6V28.25C7.25,28.25,1.81,26.28.45,23.56Zm13.3-14.5c7.4,0,13.29-2,13.29-4.53S21.15,0,13.75,0,.3,2.11.3,4.53,6.34,9.06,13.75,9.06ZM.45,14.65A3,3,0,0,0,0,16.16v4.38c0,3.33,6,6.05,13.59,6.05V19.33C7.25,19.33,1.81,17.37.45,14.65ZM42,21.9c-.3,2.42-6,4.38-13.29,4.38s-13-2-13.29-4.38a2.27,2.27,0,0,0-.3,1.36v4.38c0,3.33,6.19,6,13.74,6S42.6,31,42.6,27.64V23.26A5,5,0,0,1,42,21.9ZM28.55,35c-6.35,0-11.78-2-13.29-4.53A2.52,2.52,0,0,0,14.8,32v4.23c0,3.33,6.2,6,13.75,6s13.74-2.71,13.74-6V31.87a3.42,3.42,0,0,0-.45-1.51C40.48,33.08,35,35,28.55,35ZM26,14.35a3.37,3.37,0,0,0,1.36-2.57V7.55A4.5,4.5,0,0,0,27,6.19c-.3,2.42-6,4.38-13.29,4.38C6.5,10.42.6,8.61.3,6A4.55,4.55,0,0,0,0,7.55v4.38C0,15.26,6.19,18,13.75,18h.75C15.71,16,20.39,14.65,26,14.35Zm-10.72,6c0,2.57,5.89,4.53,13.29,4.53s13.29-2,13.29-4.53S36,15.86,28.55,15.86C21.3,15.86,15.26,17.82,15.26,20.39Z"/></g></g></svg>