<svg xmlns="http://www.w3.org/2000/svg" xmlns:xlink="http://www.w3.org/1999/xlink" viewBox="0 0 37.1 33.81"><defs><style>.cls-1{fill:url(#未命名的渐变_11);}</style><linearGradient id="未命名的渐变_11" y1="16.91" x2="37.1" y2="16.91" gradientUnits="userSpaceOnUse"><stop offset="0" stop-color="#6450a4"/><stop offset="1" stop-color="#c24362"/></linearGradient></defs><g id="图层_2" data-name="图层 2"><g id="图层_1-2" data-name="图层 1"><path class="cls-1" d="M35.69.3A2.69,2.69,0,0,0,34,0L2.22,5.15A2.6,2.6,0,0,0,.5,6.21,2.64,2.64,0,0,0,1.19,10l12.06,7.91,3.66,14a2.64,2.64,0,0,0,1.22,1.61,2.6,2.6,0,0,0,2,.27,2.54,2.54,0,0,0,.88-.41,2.7,2.7,0,0,0,.8-.91l15-28.53A2.65,2.65,0,0,0,35.69.3ZM19.45,31.17,15.91,17.6l8.39-6a1.32,1.32,0,0,0,.3-1.84,1.3,1.3,0,0,0-1.83-.3l-8.4,6L2.64,7.75,34.46,2.64Z"/></g></g></svg>