<svg xmlns="http://www.w3.org/2000/svg" viewBox="0 0 31.69 28.51"><defs><style>.cls-1{fill:#444343;}</style></defs><g id="图层_2" data-name="图层 2"><g id="图层_1-2" data-name="图层 1"><path class="cls-1" d="M26.84,28.46H22.75a1.59,1.59,0,0,1-1.58-1.59V10.73a1.59,1.59,0,0,1,1.58-1.59h2.07a3.62,3.62,0,0,1,3.61,3.61V26.87A1.59,1.59,0,0,1,26.84,28.46Zm-3.76-1.92h3.44V12.75a1.7,1.7,0,0,0-1.7-1.69H23.08Z"/><path class="cls-1" d="M17.29,28.51H9.54a1,1,0,0,1-1-1h0v-10a2.26,2.26,0,0,1,2.26-2.25H16a2.25,2.25,0,0,1,2.25,2.25v10a1,1,0,0,1-.95,1ZM10.5,26.6h5.84v-9a.35.35,0,0,0-.34-.34H10.84a.35.35,0,0,0-.34.34Z"/><path class="cls-1" d="M30.75,28.46H.94a1,1,0,0,1,0-1.92H30.75a1,1,0,0,1,0,1.92Z"/><path class="cls-1" d="M22.1,28.46H4.74a1,1,0,0,1-1-1h0V4.59A4.59,4.59,0,0,1,8.37,0h10.1a4.6,4.6,0,0,1,4.59,4.59V27.5a1,1,0,0,1-1,1ZM5.69,26.54H21.14V4.59a2.68,2.68,0,0,0-2.67-2.68H8.37A2.69,2.69,0,0,0,5.69,4.59Z"/><path class="cls-1" d="M17.42,7.64h-8a1,1,0,0,1,0-1.91h8a1,1,0,1,1,0,1.91Zm0,4.83h-8a1,1,0,1,1,0-1.91h8a1,1,0,0,1,0,1.91Z"/></g></g></svg>