<svg xmlns="http://www.w3.org/2000/svg" viewBox="0 0 28.01 28"><defs><style>.cls-1{fill:#fff;}</style></defs><g id="图层_2" data-name="图层 2"><g id="图层_1-2" data-name="图层 1"><path class="cls-1" d="M27.38,16.62,25,14.82a6.81,6.81,0,0,0,.05-.82,7,7,0,0,0-.05-.83l2.38-1.8a1.62,1.62,0,0,0,.4-2.12L25.13,4.77a1.73,1.73,0,0,0-1.48-.85,1.63,1.63,0,0,0-.57.1l-2.83,1.1a9.28,9.28,0,0,0-1.47-.82l-.43-2.88A1.67,1.67,0,0,0,16.68,0H11.33A1.67,1.67,0,0,0,9.66,1.4l-.4,2.9a10.92,10.92,0,0,0-1.48.82L5,4a1.8,1.8,0,0,0-.6-.1,1.61,1.61,0,0,0-1.45.83L.23,9.25a1.63,1.63,0,0,0,.4,2.12L3,13.17c0,.3,0,.58,0,.83a4.8,4.8,0,0,0,0,.82L.63,16.62a1.63,1.63,0,0,0-.4,2.13l2.65,4.47a1.71,1.71,0,0,0,1.48.85,1.43,1.43,0,0,0,.57-.1l2.83-1.1a9.35,9.35,0,0,0,1.47.83l.43,2.87A1.67,1.67,0,0,0,11.33,28h5.35a1.67,1.67,0,0,0,1.67-1.4l.43-2.9a10.92,10.92,0,0,0,1.47-.83L23.08,24a1.58,1.58,0,0,0,.6.1,1.63,1.63,0,0,0,1.45-.82l2.67-4.53a1.63,1.63,0,0,0-.42-2.1ZM20,14a6,6,0,1,1-6-6A6,6,0,0,1,20,14Z"/></g></g></svg>