<svg xmlns="http://www.w3.org/2000/svg" xmlns:xlink="http://www.w3.org/1999/xlink" viewBox="0 0 53.86 53.86"><defs><style>.cls-1{fill:url(#未命名的渐变_11);}.cls-2{fill:#fff;}</style><linearGradient id="未命名的渐变_11" y1="26.93" x2="53.86" y2="26.93" gradientUnits="userSpaceOnUse"><stop offset="0" stop-color="#6450a4"/><stop offset="1" stop-color="#c24362"/></linearGradient></defs><g id="图层_2" data-name="图层 2"><g id="图层_1-2" data-name="图层 1"><circle class="cls-1" cx="26.93" cy="26.93" r="26.93"/><path class="cls-2" d="M38.81,15.37a2.18,2.18,0,0,0-1.35-.23L11.33,19.35a2.16,2.16,0,0,0-1.79,2.48,2.17,2.17,0,0,0,1,1.47l9.9,6.5,3,11.46a2.17,2.17,0,0,0,1,1.32,2.1,2.1,0,0,0,1.64.23,2.08,2.08,0,0,0,.72-.34,2.17,2.17,0,0,0,.66-.75L39.73,18.3A2.18,2.18,0,0,0,38.81,15.37ZM25.49,40.71,22.57,29.57l6.9-5a1.08,1.08,0,0,0-1.27-1.75l-6.89,4.95-9.63-6.33,26.13-4.2Z"/></g></g></svg>