<svg xmlns="http://www.w3.org/2000/svg" viewBox="0 0 23.32 34.02"><defs><style>.cls-1{fill:#444343;}</style></defs><g id="图层_2" data-name="图层 2"><g id="图层_1-2" data-name="图层 1"><path class="cls-1" d="M11.66,10.18a11.36,11.36,0,0,0-6.61,2.11V8.76A6.7,6.7,0,0,1,11.66,2a6.7,6.7,0,0,1,6.61,6.75,1,1,0,0,0,1,1,1,1,0,0,0,1-1A8.69,8.69,0,0,0,11.62,0,8.69,8.69,0,0,0,3.08,8.76V14A12.07,12.07,0,0,0,0,22.1,11.81,11.81,0,0,0,11.66,34,11.81,11.81,0,0,0,23.32,22.1,11.81,11.81,0,0,0,11.66,10.18Zm0,21.83a9.92,9.92,0,0,1,0-19.83,9.92,9.92,0,0,1,0,19.83Z"/><path class="cls-1" d="M11.66,18.9A1.08,1.08,0,0,0,10.58,20v4.9a1.08,1.08,0,0,0,2.16,0V20A1.06,1.06,0,0,0,11.66,18.9Z"/></g></g></svg>