<svg xmlns="http://www.w3.org/2000/svg" viewBox="0 0 41.89 24.73"><defs><style>.cls-1{fill:#fff;}</style></defs><g id="图层_2" data-name="图层 2"><g id="图层_1-2" data-name="图层 1"><path class="cls-1" d="M18.47,20a1.45,1.45,0,0,1-.54-.11,7.71,7.71,0,1,1,10.68-7.11,7.8,7.8,0,0,1-4.47,7.09A1.39,1.39,0,1,1,23,17.34a5,5,0,0,0,2.85-4.57A4.91,4.91,0,1,0,19,17.32,1.39,1.39,0,0,1,18.47,20"/><path class="cls-1" d="M20.94,24.73c-8.76,0-16.15-6-19.78-9.62a3.83,3.83,0,0,1,0-5.49C4.79,6,12.18,0,20.94,0S37.1,6,40.73,9.62a3.83,3.83,0,0,1,0,5.49c-.68.67-1.28,1.25-2.29,2.1a1.39,1.39,0,1,1-1.79-2.12c.94-.79,1.47-1.31,2.12-1.95a1.05,1.05,0,0,0,0-1.55C36.1,8.94,29,2.78,20.94,2.78S5.79,8.94,3.12,11.59a1.05,1.05,0,0,0,0,1.55C5.79,15.79,12.89,22,20.94,22A20,20,0,0,0,32.7,18a1.39,1.39,0,1,1,1.56,2.29,22.88,22.88,0,0,1-13.32,4.4"/></g></g></svg>