<svg xmlns="http://www.w3.org/2000/svg" xmlns:xlink="http://www.w3.org/1999/xlink" viewBox="0 0 28.94 28.94"><defs><style>.cls-1{opacity:0.81;fill:url(#未命名的渐变_11);}</style><linearGradient id="未命名的渐变_11" y1="14.47" x2="28.94" y2="14.47" gradientUnits="userSpaceOnUse"><stop offset="0" stop-color="#6450a4"/><stop offset="1" stop-color="#c24362"/></linearGradient></defs><g id="图层_2" data-name="图层 2"><g id="图层_1-2" data-name="图层 1"><path class="cls-1" d="M28.94,12.66a1.68,1.68,0,0,1-.55,1.27h0l-3.61,3.61h0a1.67,1.67,0,0,1-1.27.54,1.71,1.71,0,0,1-1.81-1.8A1.64,1.64,0,0,1,22.24,15h0l.55-.54H18.08a1.71,1.71,0,0,1-1.8-1.81,1.7,1.7,0,0,1,1.8-1.81h4.71l-.55-.54h0A1.66,1.66,0,0,1,21.7,9a1.72,1.72,0,0,1,1.81-1.81,1.64,1.64,0,0,1,1.27.55h0l3.61,3.61h0A1.68,1.68,0,0,1,28.94,12.66Zm-5.43-9H8.32l3.44,2h0a1.89,1.89,0,0,1,.9,1.62V21.7H23.51a1.81,1.81,0,0,1,0,3.62H12.66v1.81a1.71,1.71,0,0,1-1.81,1.81,1.38,1.38,0,0,1-.9-.37h0l-9-5.42h0l-.54-.54v-.18A1,1,0,0,1,0,21.7V1.81A1.83,1.83,0,0,1,1.09.18,1.08,1.08,0,0,1,1.81,0h21.7a1.71,1.71,0,0,1,1.81,1.81A1.71,1.71,0,0,1,23.51,3.62Z"/></g></g></svg>