<svg xmlns="http://www.w3.org/2000/svg" xmlns:xlink="http://www.w3.org/1999/xlink" viewBox="0 0 53.86 53.86"><defs><style>.cls-1{fill:#fff;}.cls-2{fill:url(#未命名的渐变_11);}</style><linearGradient id="未命名的渐变_11" x1="9.51" y1="29.59" x2="39.98" y2="29.59" gradientUnits="userSpaceOnUse"><stop offset="0" stop-color="#6450a4"/><stop offset="1" stop-color="#c24362"/></linearGradient></defs><g id="图层_2" data-name="图层 2"><g id="图层_1-2" data-name="图层 1"><circle class="cls-1" cx="26.93" cy="26.93" r="26.93"/><path class="cls-2" d="M38.81,16a2.11,2.11,0,0,0-1.35-.22l-26.13,4.2a2.14,2.14,0,0,0-1.41.87,2.18,2.18,0,0,0,.57,3.09l9.9,6.5,3,11.45A2.17,2.17,0,0,0,26,43.4a2.25,2.25,0,0,0,.72-.33,2.37,2.37,0,0,0,.66-.75L39.73,18.89A2.18,2.18,0,0,0,38.81,16ZM25.49,41.31,22.57,30.16l6.9-4.95a1.09,1.09,0,0,0-1.27-1.76l-6.89,5-9.63-6.33,26.13-4.2Z"/></g></g></svg>