<svg xmlns="http://www.w3.org/2000/svg" xmlns:xlink="http://www.w3.org/1999/xlink" viewBox="0 0 30.88 30.95"><defs><style>.cls-1{opacity:0.81;fill:url(#未命名的渐变_11);}</style><linearGradient id="未命名的渐变_11" y1="15.48" x2="30.88" y2="15.48" gradientUnits="userSpaceOnUse"><stop offset="0" stop-color="#6450a4"/><stop offset="1" stop-color="#c24362"/></linearGradient></defs><g id="图层_2" data-name="图层 2"><g id="图层_1-2" data-name="图层 1"><path class="cls-1" d="M3.35,11.71a8.37,8.37,0,1,1,16.74,0h0a8.37,8.37,0,0,1-16.74,0ZM0,11.71A11.72,11.72,0,0,0,11.72,23.43a11.89,11.89,0,0,0,1.79-.14,1.51,1.51,0,0,0,.23.21l2.84,2.11a1.67,1.67,0,0,0,2-2.69h0L17.33,22a11.69,11.69,0,0,0,4.46-4.31l5.32,6.76a1.94,1.94,0,0,1-.32,2.74,2,2,0,0,1-2.23.13l-1.84-1.14A1.68,1.68,0,0,0,21,29h0l1.84,1.13a5.3,5.3,0,0,0,6.93-7.79L23.2,14.07a11.72,11.72,0,1,0-23-4.7A11.47,11.47,0,0,0,0,11.71Z"/></g></g></svg>