<svg xmlns="http://www.w3.org/2000/svg" xmlns:xlink="http://www.w3.org/1999/xlink" viewBox="0 0 44.75 44.44"><defs><style>.cls-1{fill:url(#未命名的渐变_11);}</style><linearGradient id="未命名的渐变_11" y1="22.22" x2="44.75" y2="22.22" gradientUnits="userSpaceOnUse"><stop offset="0" stop-color="#6450a4"/><stop offset="1" stop-color="#c24362"/></linearGradient></defs><g id="图层_2" data-name="图层 2"><g id="图层_1-2" data-name="图层 1"><path class="cls-1" d="M.48,24.76A2.64,2.64,0,0,0,0,26.34V31c0,3.49,6.35,6.34,14.28,6.34V29.68C7.62,29.68,1.9,27.61.48,24.76Zm14-15.24c7.78,0,14-2.06,14-4.76S22.22,0,14.44,0,.32,2.22.32,4.76C.32,7.46,6.67,9.52,14.44,9.52Zm-14,5.87A3.05,3.05,0,0,0,0,17v4.6c0,3.49,6.35,6.35,14.28,6.35V20.31C7.62,20.31,1.9,18.25.48,15.39ZM44.12,23c-.32,2.54-6.35,4.6-14,4.6s-13.65-2.06-14-4.6a2.35,2.35,0,0,0-.32,1.43V29c0,3.49,6.51,6.35,14.44,6.35S44.75,32.53,44.75,29v-4.6A6,6,0,0,1,44.12,23ZM30,36.82c-6.66,0-12.37-2.07-14-4.76a2.64,2.64,0,0,0-.48,1.58v4.45c0,3.49,6.51,6.35,14.44,6.35s14.45-2.86,14.45-6.35v-4.6A3.51,3.51,0,0,0,44,31.9C42.53,34.75,36.82,36.82,30,36.82ZM27.3,15.08a3.56,3.56,0,0,0,1.42-2.7V7.93a4.53,4.53,0,0,0-.31-1.42c-.32,2.54-6.35,4.6-14,4.6C6.82,11,.63,9.05.32,6.35A4.61,4.61,0,0,0,0,7.93v4.61C0,16,6.51,18.89,14.44,18.89h.8C16.5,16.82,21.42,15.39,27.3,15.08ZM16,21.42c0,2.7,6.19,4.77,14,4.77s14-2.07,14-4.77-6.19-4.76-14-4.76C22.38,16.66,16,18.73,16,21.42Z"/></g></g></svg>