<svg xmlns="http://www.w3.org/2000/svg" viewBox="0 0 23.1 26.96"><defs><style>.cls-1{fill:#444343;}</style></defs><g id="图层_2" data-name="图层 2"><g id="图层_1-2" data-name="图层 1"><path class="cls-1" d="M11.57,11.6a5.8,5.8,0,1,1,5.8-5.8A5.8,5.8,0,0,1,11.57,11.6Zm0-9.28A3.48,3.48,0,1,0,15.05,5.8,3.48,3.48,0,0,0,11.57,2.32ZM9.5,27C6,27,2.79,26.82,1.11,25.15A3.84,3.84,0,0,1,0,22.32,6,6,0,0,1,1.1,19a10.17,10.17,0,0,1,2.69-2.61A14.25,14.25,0,0,1,11.57,14a14.11,14.11,0,0,1,7.76,2.39A9.62,9.62,0,0,1,22,19a6,6,0,0,1,1.1,3.36A3.83,3.83,0,0,1,22,25.15C20.15,27,16.48,27,12.6,27c-.69,0-1.38,0-2.06,0Zm2.07-2.33h1a42.15,42.15,0,0,0,4.92-.15,5,5,0,0,0,2.82-1,1.53,1.53,0,0,0,.43-1.19c0-1.38-1-2.86-2.75-4a11.79,11.79,0,0,0-6.46-2c-4.58,0-9.25,3.05-9.25,6a1.52,1.52,0,0,0,.43,1.18c1.16,1.16,4.68,1.15,7.78,1.13Z"/></g></g></svg>